{"title":"30 Minutes or Less (2011) BRRip NL subs DutchReleaseTeam [Avontu","uid":6800871,"size":742404558,"categoryP":"video","categoryS":"movies","magnet":"?xt=urn:btih:ee6e6f8df055252dcf66f15e5c08d7bfa273877f&amp;dn=30+Minutes+or+Less+%282011%29+BRRip+NL+subs+DutchReleaseTeam+%5BAvontu&amp;tr=udp%3A%2F%2Ftracker.openbittorrent.com%3A80&amp;tr=udp%3A%2F%2Fopen.demonii.com%3A1337&amp;tr=udp%3A%2F%2Ftracker.coppersurfer.tk%3A6969&amp;tr=udp%3A%2F%2Fexodus.desync.com%3A6969","seeders":1,"leechers":0,"uploader":"Koedje","files":-1,"time":1320681933,"description":" &lt;a href=&quot;http://img846.imageshack.us/img846/7247/30mins.jpg&quot; rel=&quot;nofollow&quot; target=&quot;_NEW&quot;&gt;http://img846.imageshack.us/img846/7247/30mins.jpg&lt;/a&gt;\n\n\nCanada / Verenigde Staten / Duitsland\nAvontuur / Komedie\n83 minuten\n\ngeregisseerd door Ruben Fleischer\nmet Jesse Eisenberg, Danny McBride en Aziz Ansari\n\nNick (Jesse Eisenberg) is een pizzabezorger in een klein dorpje. Zijn leventje wordt op z'n kop gezet wanneer twee wannabe-gangsters (Danny McBride en Nick Swardson) hem kidnappen en hem dwingen een bank te overvallen. Nick krijgt hiervoor slechts weinig tijd en hij roept de hulp in van z'n vroegere beste vriend, Chet (Aziz Ansari). In een race tegen de klok moeten de twee omgaan met de politie, huurmoordenaars, vlammenwerpers en hun eigen vertroebelde relatie.\n\n\n\nVertaald door Simply Release Toppers:\nMarkow87 &amp; Tokke\n\n\n\n\n\nScreenshots:\n &lt;a href=&quot;\nhttp://img15.imageshack.us/img15/1508/screenshot1ci.jpg&quot; rel=&quot;nofollow&quot; target=&quot;_NEW&quot;&gt;\nhttp://img15.imageshack.us/img15/1508/screenshot1ci.jpg&lt;/a&gt;\n &lt;a href=&quot;\nhttp://img28.imageshack.us/img28/8815/screenshot2bf.jpg&quot; rel=&quot;nofollow&quot; target=&quot;_NEW&quot;&gt;\nhttp://img28.imageshack.us/img28/8815/screenshot2bf.jpg&lt;/a&gt;\n &lt;a href=&quot;\nhttp://img593.imageshack.us/img593/3277/screenshot3yqm.jpg&quot; rel=&quot;nofollow&quot; target=&quot;_NEW&quot;&gt;\nhttp://img593.imageshack.us/img593/3277/screenshot3yqm.jpg&lt;/a&gt;\n &lt;a href=&quot;\nhttp://img263.imageshack.us/img263/5805/screenshot4uu.jpg&quot; rel=&quot;nofollow&quot; target=&quot;_NEW&quot;&gt;\nhttp://img263.imageshack.us/img263/5805/screenshot4uu.jpg&lt;/a&gt;\n\n\n\n\nINFO;\n\nFormat                                   : AVI\nFormat/Info                              : Audio Video Interleave\nFile size                                : 700 MiB\nDuration                                 : 1h 23mn\nOverall bit rate mode                    : Variable\nOverall bit rate                         : 1 179 Kbps\n\n\nVideo\nID                                       : 0\nFormat                                   : MPEG-4 Visual\nFormat profile                           : Advanced Simple@L5\nFormat settings, BVOP                    : 1\nFormat settings, QPel                    : No\nFormat settings, GMC                     : No warppoints\nFormat settings, Matrix                  : Custom\nCodec ID                                 : XVID\nCodec ID/Hint                            : XviD\nDuration                                 : 1h 23mn\nBit rate                                 : 1 055 Kbps\nWidth                                    : 720 pixels\nHeight                                   : 304 pixels\nDisplay aspect ratio                     : 2.35:1\nFrame rate                               : 23.976 fps\nColor space                              : YUV\nChroma subsampling                       : 4:2:0\nBit depth                                : 8 bits\nScan type                                : Progressive\nCompression mode                         : Lossy\nBits/(Pixel*Frame)                       : 0.201\nStream size                              : 626 MiB (89%)\nWriting library                          : XviD 64\n\nAudio\nID                                       : 1\nFormat                                   : MPEG Audio\nFormat version                           : Version 1\nFormat profile                           : Layer 3\nMode                                     : Joint stereo\nMode extension                           : MS Stereo\nCodec ID                                 : 55\nCodec ID/Hint                            : MP3\nDuration                                 : 1h 23mn\nBit rate mode                            : Variable\nBit rate                                 : 111 Kbps\nNominal bit rate                         : 128 Kbps\nChannel(s)                               : 2 channels\nSampling rate                            : 48.0 KHz\nCompression mode                         : Lossy\nStream size                              : 66.2 MiB (9%)\nAlignment                                : Aligned on interleaves\nInterleave, duration                     : 24 ms (0.58 video frame)\nInterleave, preload duration             : 165 ms\n\n\n\n &lt;a href=&quot;\nhttp://www.imdb.com/title/tt1622547/&quot; rel=&quot;nofollow&quot; target=&quot;_NEW&quot;&gt;\nhttp://www.imdb.com/title/tt1622547/&lt;/a&gt; &lt;a href=&quot;\nhttp://www.moviemeter.nl/film/73020&quot; rel=&quot;nofollow&quot; target=&quot;_NEW&quot;&gt;\nhttp://www.moviemeter.nl/film/73020&lt;/a&gt;\n\n\n\n\nDeze film wordt u aangeboden door het DutchReleaseTeam.\nVoor de reviews van de nieuwste films, muziek, series, games etc\nga dan eens naar http://www.hetmultimediacafe.be\n\nDutchReleaseteam = Hardcoded Dutch Subs","torrent":{"xt":"urn:btih:ee6e6f8df055252dcf66f15e5c08d7bfa273877f","amp;dn":"30+Minutes+or+Less+%282011%29+BRRip+NL+subs+DutchReleaseTeam+%5BAvontu","amp;tr":["udp%3A%2F%2Ftracker.openbittorrent.com%3A80","udp%3A%2F%2Fopen.demonii.com%3A1337","udp%3A%2F%2Ftracker.coppersurfer.tk%3A6969","udp%3A%2F%2Fexodus.desync.com%3A6969"],"infoHash":"ee6e6f8df055252dcf66f15e5c08d7bfa273877f","infoHashBuffer":{"type":"Buffer","data":[238,110,111,141,240,85,37,45,207,102,241,94,92,8,215,191,162,115,135,127]},"announce":[],"urlList":[]}}